<svg xmlns="http://www.w3.org/2000/svg" width="328.688" height="79.515" viewBox="0 0 328.688 79.515">
  <g id="hotel-overlook-logo" transform="translate(-16.402 -39)">
    <path id="Path_13" data-name="Path 13" d="M23.49,0H21.579V-13.341H5.733V0H3.841V-27.127H5.733v12.042H21.579V-27.127H23.49ZM53.976-13.6q0,6.457-3.229,10.214A11.12,11.12,0,0,1,41.841.371a11.1,11.1,0,0,1-8.888-3.757q-3.229-3.757-3.229-10.251,0-6.476,3.256-10.2a11.213,11.213,0,0,1,8.9-3.72,11.09,11.09,0,0,1,8.888,3.739Q53.976-20.076,53.976-13.6Zm-22.191,0q0,5.826,2.6,9.008A9.075,9.075,0,0,0,41.841-1.41q4.9,0,7.487-3.154T51.916-13.6q0-5.863-2.588-8.99a9.121,9.121,0,0,0-7.45-3.126,9.172,9.172,0,0,0-7.468,3.154Q31.784-19.408,31.784-13.6ZM67.279,0H65.368V-25.346H56.555v-1.781H76.093v1.781H67.279ZM94.944,0H80.119V-27.127H94.944v1.744H82.012v10.261H94.221v1.744H82.012V-1.744H94.944Zm6.142,0V-27.127h1.893V-1.781h12.933V0Zm52.176-13.6q0,6.457-3.229,10.214A11.12,11.12,0,0,1,141.127.371a11.1,11.1,0,0,1-8.888-3.757q-3.229-3.757-3.229-10.251,0-6.476,3.256-10.2a11.213,11.213,0,0,1,8.9-3.72,11.09,11.09,0,0,1,8.888,3.739Q153.262-20.076,153.262-13.6Zm-22.191,0q0,5.826,2.6,9.008a9.075,9.075,0,0,0,7.459,3.182q4.9,0,7.487-3.154T151.2-13.6q0-5.863-2.588-8.99a9.121,9.121,0,0,0-7.45-3.126,9.172,9.172,0,0,0-7.468,3.154Q131.07-19.408,131.07-13.6Zm44.457-13.526h2.06L167.438,0h-1.67L155.655-27.127h2.022l6.828,18.462q1.559,4.175,2.1,6.271.371-1.392,1.466-4.323ZM196.253,0H181.428V-27.127h14.825v1.744H183.32v10.261h12.209v1.744H183.32V-1.744h12.933Zm8.034-11.819V0h-1.893V-27.127h6.457q5.047,0,7.459,1.865a6.652,6.652,0,0,1,2.412,5.613,7.335,7.335,0,0,1-1.438,4.6,7.994,7.994,0,0,1-4.37,2.69L220.281,0h-2.264l-7-11.819Zm0-1.633h5.177a8.261,8.261,0,0,0,5.325-1.531,5.468,5.468,0,0,0,1.893-4.518,5.3,5.3,0,0,0-1.855-4.509q-1.855-1.41-6.049-1.41h-4.49ZM224.976,0V-27.127h1.893V-1.781H239.8V0Zm42.3-13.6q0,6.457-3.229,10.214A11.12,11.12,0,0,1,255.146.371a11.1,11.1,0,0,1-8.888-3.757q-3.229-3.757-3.229-10.251,0-6.476,3.256-10.2a11.213,11.213,0,0,1,8.9-3.72,11.09,11.09,0,0,1,8.888,3.739Q267.28-20.076,267.28-13.6Zm-22.191,0q0,5.826,2.6,9.008a9.075,9.075,0,0,0,7.459,3.182q4.9,0,7.487-3.154t2.588-9.036q0-5.863-2.588-8.99a9.121,9.121,0,0,0-7.45-3.126,9.172,9.172,0,0,0-7.468,3.154Q245.089-19.408,245.089-13.6Zm51.229,0q0,6.457-3.229,10.214A11.12,11.12,0,0,1,284.184.371,11.1,11.1,0,0,1,275.3-3.386q-3.229-3.757-3.229-10.251,0-6.476,3.256-10.2a11.213,11.213,0,0,1,8.9-3.72,11.09,11.09,0,0,1,8.888,3.739Q296.318-20.076,296.318-13.6Zm-22.191,0q0,5.826,2.6,9.008a9.075,9.075,0,0,0,7.459,3.182q4.9,0,7.487-3.154t2.588-9.036q0-5.863-2.588-8.99a9.121,9.121,0,0,0-7.45-3.126,9.172,9.172,0,0,0-7.468,3.154Q274.127-19.408,274.127-13.6ZM320.792,0h-2.319L308.063-14.324l-3.618,3.191V0h-1.893V-27.127h1.893v14.1l3.006-3.006,10.632-11.1H320.5L309.381-15.66Z" transform="translate(12.561 87.586)" fill="#fff"/>
    <path id="Path_1" data-name="Path 1" d="M265.444,148.563l7.006-4.281,7.006,4.281-1.911-7.984,6.238-5.345-8.181-.65L272.449,127l-3.152,7.584-8.188.65,6.238,5.345Z" transform="translate(-85.351 -30.047)" fill="red"/>
    <path id="Path_2" data-name="Path 2" d="M304.137,148.563l7.006-4.281,7.006,4.281-1.911-7.984,6.244-5.345-8.188-.65L311.143,127l-3.152,7.584-8.181.65,6.238,5.345Z" transform="translate(-98.641 -30.047)" fill="red"/>
    <path id="Path_3" data-name="Path 3" d="M342.827,148.563l7.013-4.281,7.006,4.281-1.911-7.984,6.238-5.345-8.188-.65L349.84,127l-3.152,7.584-8.188.65,6.238,5.345Z" transform="translate(-111.927 -30.047)" fill="red"/>
    <path id="Path_4" data-name="Path 4" d="M381.524,148.563l7.006-4.281,7.006,4.281-1.911-7.984,6.238-5.345-8.181-.65L388.529,127l-3.152,7.584-8.188.65,6.244,5.345Z" transform="translate(-125.213 -30.047)" fill="red"/>
    <path id="Path_5" data-name="Path 5" d="M226.747,148.563l7.006-4.281,7.006,4.281-1.9-7.984,6.238-5.345-8.188-.65L233.753,127l-3.145,7.584-8.188.65,6.238,5.345Z" transform="translate(-72.065 -30.047)" fill="red"/>
    <line id="Line_1" data-name="Line 1" x1="225.543" transform="translate(119.547 39.5)" fill="none" stroke="#aaa" stroke-miterlimit="10" stroke-width="1"/>
    <line id="Line_2" data-name="Line 2" x1="30.86" transform="translate(119.547 108.443)" fill="none" stroke="#aaa" stroke-miterlimit="10" stroke-width="1"/>
    <line id="Line_3" data-name="Line 3" x1="70.256" transform="translate(274.505 108.443)" fill="none" stroke="#aaa" stroke-miterlimit="10" stroke-width="1"/>
  </g>
</svg>

